<svg id="Layer_1" data-name="Layer 1" xmlns="http://www.w3.org/2000/svg" viewBox="0 0 196.73 60"><defs><style>.cls-1{fill:#ee4036;}</style></defs><title>logo</title><path class="cls-1" d="M14.55,48.63a2.71,2.71,0,0,1-1-.42l-11.39-11Q1.33,36.4,1,36a4.22,4.22,0,0,1-.67-1A2.88,2.88,0,0,1,0,33.71V32.12a2.84,2.84,0,0,1,.33-1.34A4.29,4.29,0,0,1,1,29.84q.29-.31,1.23-1.18L13.54,17.32a1.58,1.58,0,0,1,1-.32,1.25,1.25,0,0,1,1,.4,1.41,1.41,0,0,1,.37,1v1.81a3.47,3.47,0,0,1,0,.53c0,.16-.05.3-.08.42a1.36,1.36,0,0,1-.19.42,2.4,2.4,0,0,0-.2.34,1.59,1.59,0,0,1-.29.36l-.29.29-.39.36-.39.36L5.2,32.35a.66.66,0,0,0,0,1.17L14,42.26l.39.34.37.34.31.31a2.7,2.7,0,0,1,.29.32l.22.32a1.22,1.22,0,0,1,.18.39q0,.18.08.42a3.46,3.46,0,0,1,0,.53v2a1.37,1.37,0,0,1-.37,1A1.2,1.2,0,0,1,14.55,48.63Z"/><path class="cls-1" d="M25.59,60q-.35,0-.35-.84a.74.74,0,0,1,0-.13.88.88,0,0,0,0-.16l9.15-57.7q.2-1.13.7-1.13H40.5q.39,0,.39.81a1,1,0,0,1,0,.32L31.66,58.87Q31.46,60,31,60Z"/><path class="cls-1" d="M49.58,53.33a1,1,0,0,1-.78-.28,2.14,2.14,0,0,1-.24-1.25V8.29A2.14,2.14,0,0,1,48.8,7a1,1,0,0,1,.78-.28h5.67A1,1,0,0,1,56,7a2.14,2.14,0,0,1,.24,1.25V25.52a1,1,0,0,0,.14.52q.14.23.25.23H68.4c.08,0,.17-.08.27-.24a1,1,0,0,0,.16-.53V8.29a2,2,0,0,1,.25-1.23,1,1,0,0,1,.76-.29H75.6a.93.93,0,0,1,.74.28,2.15,2.15,0,0,1,.24,1.25V51.81a2.15,2.15,0,0,1-.24,1.25.92.92,0,0,1-.74.28H69.84a1.48,1.48,0,0,1-.55-.08.78.78,0,0,1-.35-.44,2.57,2.57,0,0,1-.16-1V32q0-.68-.43-.68H56.74q-.39,0-.39.68V51.81A2,2,0,0,1,56.09,53a1,1,0,0,1-.76.29Z"/><path class="cls-1" d="M91.25,53.33a.88.88,0,0,1-.72-.31,2.09,2.09,0,0,1-.25-1.25v-39q0-.81-.43-.81H83a2.37,2.37,0,0,1-.57,0,.56.56,0,0,1-.31-.32,2,2,0,0,1-.14-.86V8.19A1.91,1.91,0,0,1,82.25,7,1,1,0,0,1,83,6.77h22.11a.93.93,0,0,1,.74.28,1.91,1.91,0,0,1,.24,1.15v2.56a1.57,1.57,0,0,1-.22,1,1.09,1.09,0,0,1-.76.21H98.44q-.43,0-.43.81v39A2.09,2.09,0,0,1,97.76,53a1,1,0,0,1-.76.29Z"/><path class="cls-1" d="M111.75,53.33q-.94,0-.94-1.59v-.16l1.76-43q0-1.78,1-1.85h6.18a1.77,1.77,0,0,1,1,.32,2,2,0,0,1,.59,1.2l6.61,30.63a.33.33,0,0,0,.14.19.16.16,0,0,0,.2,0,.22.22,0,0,0,.1-.19L135,8.39q.35-1.55,1.53-1.62h6.26q.94.07.94,1.85l1.84,43v.19q0,1.55-1,1.55h-4.3q-.94,0-1-1.75L138,18.33c0-.13,0-.21-.12-.23s-.13,0-.16.1l-7.12,33.58q-.31,1.55-1.33,1.55h-2.54q-.94,0-1.33-1.55l-6.93-33.42q0-.19-.16-.06a.39.39,0,0,0,0,.19l-1.25,33.09q0,1.75-.9,1.75Z"/><path class="cls-1" d="M154.86,53.33a.92.92,0,0,1-.74-.28,2.14,2.14,0,0,1-.24-1.25V8.29A2.14,2.14,0,0,1,154.12,7a.93.93,0,0,1,.74-.28h5.75a.93.93,0,0,1,.74.28,2.14,2.14,0,0,1,.24,1.25V47.47q0,.71.55.71h10.17a1,1,0,0,1,.74.23,1.54,1.54,0,0,1,.23,1V52a1.61,1.61,0,0,1-.23,1.05,1,1,0,0,1-.74.24Z"/><path class="cls-1" d="M182.17,48.63a1.18,1.18,0,0,1-.94-.4,1.5,1.5,0,0,1-.35-1V45.43q0-.23,0-.44a2.51,2.51,0,0,1,.06-.37,2,2,0,0,1,.12-.34l.14-.29a2.16,2.16,0,0,1,.2-.29l.2-.26.24-.28a3,3,0,0,1,.25-.26l.31-.28a3.19,3.19,0,0,0,.31-.31l8.8-9a.84.84,0,0,0,.31-.62.65.65,0,0,0-.35-.55l-8.72-8.74a5.17,5.17,0,0,0-.45-.4,4.1,4.1,0,0,1-.43-.39l-.33-.34a1.25,1.25,0,0,1-.29-.37c0-.1-.1-.23-.18-.39a1.73,1.73,0,0,1-.16-.5,3.92,3.92,0,0,1,0-.58V18.33a1.33,1.33,0,0,1,.35-1,1.23,1.23,0,0,1,.94-.37,1.91,1.91,0,0,1,1,.39l11.39,11.07q.9.84,1.21,1.17a4.37,4.37,0,0,1,.65.94,2.75,2.75,0,0,1,.33,1.33v1.59q0,.26,0,.47a1.46,1.46,0,0,1-.12.44,2.79,2.79,0,0,0-.14.37,1.07,1.07,0,0,1-.23.37,1.49,1.49,0,0,0-.24.32,1.68,1.68,0,0,1-.31.37l-.33.34-.41.39-.43.39L183.19,48.28A1.89,1.89,0,0,1,182.17,48.63Z"/></svg>